<svg width="66" height="66" viewBox="0 0 66 66" fill="none" xmlns="http://www.w3.org/2000/svg">
<path opacity="0.4" d="M40.7981 11.4668C39.234 11.1778 37.7975 12.176 37.4997 13.7028C37.2019 15.2296 38.2032 16.7202 39.7248 17.019C44.3059 17.9121 47.8431 21.4582 48.7397 26.055V26.0583C48.9949 27.3815 50.1599 28.3435 51.5015 28.3435C51.6814 28.3435 51.8614 28.3271 52.0446 28.2943C53.5662 27.9889 54.5675 26.5015 54.2697 24.9715C52.9314 18.1058 47.6468 12.8031 40.7981 11.4668" fill="#FF5F55"/>
<path opacity="0.4" d="M40.5934 0.0260546C39.8604 -0.0790147 39.1241 0.137691 38.5384 0.603936C37.9363 1.07675 37.56 1.7597 37.4782 2.52473C37.3048 4.07122 38.4206 5.46996 39.9651 5.64398C50.6161 6.83257 58.8948 15.1298 60.0924 25.814C60.2528 27.2456 61.4537 28.3258 62.8869 28.3258C62.9949 28.3258 63.0996 28.3192 63.2076 28.3061C63.9569 28.224 64.6244 27.853 65.0956 27.262C65.5635 26.671 65.7762 25.9355 65.6912 25.1836C64.199 11.8529 53.8818 1.50687 40.5934 0.0260546" fill="#FF5F55"/>
<path fill-rule="evenodd" clip-rule="evenodd" d="M29.6753 36.0511C42.7821 49.1543 45.7555 33.9954 54.1007 42.3347C62.1461 50.3779 66.7701 51.9893 56.5767 62.1799C55.2999 63.206 47.1875 75.551 18.6777 47.0492C-9.83558 18.5438 2.50232 10.4231 3.52871 9.14663C13.7468 -1.07215 15.3305 3.57884 23.3759 11.622C31.7211 19.9648 16.5685 22.948 29.6753 36.0511Z" fill="#FF5F55"/>
</svg>
