<svg width="70" height="70" viewBox="0 0 70 70" fill="none" xmlns="http://www.w3.org/2000/svg">
<path opacity="0.4" d="M67.4423 48.3426C67.4423 57.4718 60.1127 64.8668 50.9835 64.8995H50.9508H18.5242C9.4277 64.8995 2 57.5372 2 48.408V48.3753C2 48.3753 2.01963 33.8929 2.04581 26.6092C2.04908 25.2415 3.6197 24.4758 4.68968 25.3266C12.4642 31.4945 26.3674 42.7407 26.5408 42.888C28.8641 44.7498 31.809 45.8002 34.8193 45.8002C37.8296 45.8002 40.7745 44.7498 43.0977 42.852C43.2712 42.7375 56.8635 31.8282 64.7559 25.5589C65.8291 24.7048 67.4063 25.4705 67.4095 26.835C67.4423 34.0631 67.4423 48.3426 67.4423 48.3426" fill="#4187FF"/>
<path d="M65.7321 14.7496C62.8984 9.40954 57.3227 6 51.1842 6H18.5285C12.3901 6 6.81437 9.40954 3.98072 14.7496C3.34593 15.944 3.64697 17.4328 4.70386 18.277L28.9993 37.7101C30.7008 39.0843 32.7622 39.7682 34.8237 39.7682C34.8368 39.7682 34.8466 39.7682 34.8564 39.7682C34.8662 39.7682 34.8793 39.7682 34.8891 39.7682C36.9505 39.7682 39.012 39.0843 40.7135 37.7101L65.0089 18.277C66.0658 17.4328 66.3668 15.944 65.7321 14.7496" fill="#4187FF"/>
</svg>
