<svg width="61" height="61" viewBox="0 0 61 61" fill="none" xmlns="http://www.w3.org/2000/svg">
<g clip-path="url(#clip0_2543_11908)">
<rect x="-15" y="-15" width="90" height="90" rx="45" fill="url(#paint0_radial_2543_11908)"/>
<path d="M24.312 30.9362C24.312 27.6171 27.0019 24.9257 30.321 24.9257C33.6401 24.9257 36.3314 27.6171 36.3314 30.9362C36.3314 34.2553 33.6401 36.9467 30.321 36.9467C27.0019 36.9467 24.312 34.2553 24.312 30.9362ZM21.0628 30.9362C21.0628 36.0495 25.2077 40.1944 30.321 40.1944C35.4343 40.1944 39.5791 36.0495 39.5791 30.9362C39.5791 25.8229 35.4343 21.678 30.321 21.678C25.2077 21.678 21.063 25.8226 21.063 30.9362H21.0628ZM37.7822 21.311C37.782 21.7389 37.9088 22.1572 38.1464 22.5131C38.384 22.869 38.7218 23.1465 39.117 23.3104C39.5123 23.4743 39.9473 23.5173 40.3671 23.434C40.7868 23.3507 41.1724 23.1448 41.4751 22.8423C41.7778 22.5399 41.984 22.1544 42.0677 21.7348C42.1513 21.3151 42.1086 20.8801 41.945 20.4846C41.7814 20.0892 41.5043 19.7512 41.1486 19.5133C40.7928 19.2755 40.3746 19.1484 39.9467 19.1482H39.9458C39.3722 19.1485 38.8222 19.3764 38.4165 19.7819C38.0108 20.1874 37.7827 20.7374 37.7822 21.311ZM23.0369 45.6123C21.279 45.5322 20.3236 45.2394 19.6886 44.9921C18.8469 44.6644 18.2462 44.274 17.6148 43.6434C16.9833 43.0128 16.5924 42.4128 16.2661 41.571C16.0186 40.9363 15.7258 39.9806 15.6459 38.2228C15.5585 36.3223 15.541 35.7514 15.541 30.9365C15.541 26.1216 15.5599 25.5523 15.6459 23.6502C15.7259 21.8924 16.0209 20.9385 16.2661 20.302C16.5938 19.4602 16.9841 18.8596 17.6148 18.2281C18.2454 17.5966 18.8454 17.2057 19.6886 16.8795C20.3233 16.632 21.279 16.3392 23.0369 16.2592C24.9374 16.1718 25.5083 16.1544 30.321 16.1544C35.1337 16.1544 35.7052 16.173 37.6072 16.2595C39.3651 16.3396 40.319 16.6346 40.9555 16.8798C41.7973 17.206 42.3979 17.5978 43.0294 18.2284C43.6608 18.859 44.0503 19.4605 44.378 20.3023C44.6255 20.9369 44.9183 21.8927 44.9982 23.6505C45.0856 25.5526 45.1031 26.1219 45.1031 30.9368C45.1031 35.7516 45.0856 36.321 44.9982 38.223C44.9182 39.9809 44.6239 40.9363 44.378 41.5713C44.0503 42.4131 43.66 43.0137 43.0294 43.6437C42.3987 44.2738 41.7973 44.6646 40.9555 44.9924C40.3208 45.2399 39.3651 45.5327 37.6072 45.6126C35.7067 45.7 35.1358 45.7174 30.321 45.7174C25.5061 45.7174 24.9368 45.7 23.0369 45.6126V45.6123ZM22.8876 13.0154C20.9682 13.1028 19.6566 13.4072 18.5112 13.8529C17.3257 14.3132 16.3208 14.9307 15.3173 15.9325C14.3138 16.9344 13.6979 17.9395 13.2377 19.1264C12.792 20.2726 12.4876 21.5834 12.4002 23.5028C12.3114 25.4252 12.291 26.0398 12.291 30.9362C12.291 35.8326 12.3114 36.4472 12.4002 38.3696C12.4876 40.2891 12.792 41.5998 13.2377 42.746C13.6979 43.9315 14.314 44.9384 15.3173 45.9399C16.3206 46.9413 17.3243 47.5579 18.5112 48.0195C19.6588 48.4652 20.9682 48.7696 22.8876 48.857C24.811 48.9444 25.4246 48.9662 30.321 48.9662C35.2173 48.9662 35.8319 48.9458 37.7544 48.857C39.6739 48.7696 40.9846 48.4652 42.1307 48.0195C43.3163 47.5579 44.3212 46.9418 45.3246 45.9399C46.3281 44.938 46.9427 43.9315 47.4043 42.746C47.85 41.5998 48.1558 40.289 48.2417 38.3696C48.3292 36.4457 48.3495 35.8326 48.3495 30.9362C48.3495 26.0398 48.3292 25.4252 48.2417 23.5028C48.1543 21.5833 47.85 20.2718 47.4043 19.1264C46.9427 17.9409 46.3265 16.936 45.3246 15.9325C44.3228 14.9291 43.3162 14.3132 42.1322 13.8529C40.9846 13.4072 39.6738 13.1014 37.7558 13.0154C35.8331 12.9276 35.2188 12.9062 30.3231 12.9062C25.4275 12.9062 24.8117 12.9266 22.8883 13.0154" fill="white"/>
</g>
<defs>
<radialGradient id="paint0_radial_2543_11908" cx="0" cy="0" r="1" gradientUnits="userSpaceOnUse" gradientTransform="translate(-9.17529 73.0284) scale(114.267)">
<stop offset="0.09" stop-color="#FA8F21"/>
<stop offset="0.78" stop-color="#EB2482"/>
</radialGradient>
<clipPath id="clip0_2543_11908">
<rect width="61" height="61" fill="white"/>
</clipPath>
</defs>
</svg>
