<svg width="66" height="66" viewBox="0 0 66 66" fill="none" xmlns="http://www.w3.org/2000/svg">
<path opacity="0.4" d="M65.4423 46.3428C65.4423 55.472 58.1127 62.867 48.9835 62.8997H48.9508H16.5242C7.4277 62.8997 0 55.5375 0 46.4083V46.3756C0 46.3756 0.0196327 31.8932 0.0458096 24.6095C0.0490817 23.2417 1.6197 22.476 2.68968 23.3268C10.4642 29.4947 24.3674 40.741 24.5408 40.8882C26.8641 42.7501 29.809 43.8004 32.8193 43.8004C35.8296 43.8004 38.7745 42.7501 41.0977 40.8522C41.2712 40.7377 54.8635 29.8285 62.7559 23.5591C63.8291 22.7051 65.4063 23.4708 65.4095 24.8352C65.4423 32.0633 65.4423 46.3428 65.4423 46.3428" fill="#4187FF"/>
<path d="M63.7313 12.7496C60.8977 7.40954 55.322 4 49.1835 4H16.5278C10.3893 4 4.81364 7.40954 1.97999 12.7496C1.3452 13.944 1.64624 15.4328 2.70313 16.277L26.9986 35.7101C28.7001 37.0843 30.7615 37.7682 32.8229 37.7682C32.836 37.7682 32.8458 37.7682 32.8557 37.7682C32.8655 37.7682 32.8786 37.7682 32.8884 37.7682C34.9498 37.7682 37.0112 37.0843 38.7127 35.7101L63.0082 16.277C64.0651 15.4328 64.3661 13.944 63.7313 12.7496" fill="#4187FF"/>
</svg>
