<svg width="254" height="294" viewBox="0 0 254 294" fill="none" xmlns="http://www.w3.org/2000/svg">
<path d="M254 294C254 277.322 250.715 260.808 244.333 245.399C237.95 229.991 228.596 215.99 216.803 204.197C205.01 192.404 191.009 183.05 175.601 176.667C160.192 170.285 143.678 167 127 167C110.322 167 93.8076 170.285 78.3992 176.667C62.9909 183.05 48.9905 192.404 37.1974 204.197C25.4044 215.99 16.0496 229.991 9.6673 245.399C3.28495 260.808 -1.45803e-06 277.322 0 294L127 294H254Z" fill="#FFC32A"/>
<rect width="27" height="177" transform="matrix(-1 0 0 1 155 117)" fill="#4187FF"/>
<rect x="48.541" y="35.5352" width="188.685" height="109.515" fill="#FF5F55"/>
<rect x="48.522" y="35.5205" width="77.2129" height="109.502" fill="#E84B41"/>
<rect x="16.4414" y="126.575" width="109.857" height="18.4638" fill="#FF5F55"/>
<rect x="25.3579" y="45.0967" width="86.846" height="69.7707" fill="#4187FF"/>
<path d="M25.3579 45.0967H112.204L68.7809 78.0318L25.3579 45.0967Z" fill="#77E36E"/>
<rect x="186.882" width="12.7378" height="47.9409" fill="#FFBFC7"/>
<rect x="186.858" width="31.6474" height="20.4147" fill="#FFBFC7"/>
</svg>
