<svg width="180" height="36" viewBox="0 0 180 36" fill="none" xmlns="http://www.w3.org/2000/svg">
<path d="M173.074 11.7119H177.299L171.727 27.0211C170.135 31.4302 167.532 33.3591 163.644 33.1448V29.4706C165.818 29.5012 166.92 28.5827 167.655 26.5312L161.378 11.7119H165.695L169.676 21.9997L173.074 11.7119Z" fill="#EFF2F7"/>
<path d="M154.262 11.2832C157.507 11.2832 160.049 13.549 160.049 17.6212V27.0211H156.099V18.1111C156.099 16.0291 154.844 14.9574 153.068 14.9574C151.139 14.9574 149.7 16.0903 149.7 18.7541V27.0211H145.75V11.7119H149.7V13.4265C150.618 12.0487 152.21 11.2832 154.262 11.2832Z" fill="#EFF2F7"/>
<path d="M138.219 11.7119H142.168V27.0211H138.219V25.2146C137.116 26.5924 135.463 27.4497 133.228 27.4497C129.156 27.4497 125.788 23.9286 125.788 19.3665C125.788 14.8043 129.156 11.2832 133.228 11.2832C135.463 11.2832 137.116 12.1405 138.219 13.5183V11.7119ZM133.963 23.6837C136.412 23.6837 138.219 21.9384 138.219 19.3665C138.219 16.7945 136.412 15.0493 133.963 15.0493C131.544 15.0493 129.737 16.7945 129.737 19.3665C129.737 21.9384 131.544 23.6837 133.963 23.6837Z" fill="#EFF2F7"/>
<path d="M116.327 11.2832C120.43 11.2832 123.798 14.8043 123.798 19.3665C123.798 23.9286 120.43 27.4497 116.327 27.4497C114.092 27.4497 112.469 26.623 111.367 25.2146V33.1447H107.417V11.7119H111.367V13.5183C112.469 12.1099 114.092 11.2832 116.327 11.2832ZM115.592 23.6837C118.042 23.6837 119.848 21.9384 119.848 19.3665C119.848 16.7945 118.042 15.0493 115.592 15.0493C113.173 15.0493 111.367 16.7945 111.367 19.3665C111.367 21.9384 113.173 23.6837 115.592 23.6837Z" fill="#EFF2F7"/>
<path d="M98.2757 11.2832C101.766 11.2832 104.063 13.7633 104.063 17.5906V27.0211H100.113V17.8662C100.113 16.0597 99.1943 14.9574 97.5409 14.9574C95.7956 14.9574 94.6934 16.1209 94.6934 18.4173V27.0211H90.7436V17.8662C90.7436 16.0597 89.825 14.9574 88.1717 14.9574C86.4876 14.9574 85.2935 16.1209 85.2935 18.4173V27.0211H81.3438V11.7119H85.2935V13.3346C86.1508 12.0487 87.5899 11.2832 89.5495 11.2832C91.4478 11.2832 92.8563 12.0793 93.7136 13.4877C94.6628 12.1099 96.1937 11.2832 98.2757 11.2832Z" fill="#EFF2F7"/>
<path d="M70.4514 27.4497C65.9505 27.4497 62.3682 23.9286 62.3682 19.3665C62.3682 14.8043 65.9505 11.2832 70.4514 11.2832C74.9523 11.2832 78.5653 14.8043 78.5653 19.3665C78.5653 23.9286 74.9523 27.4497 70.4514 27.4497ZM70.4514 23.5918C72.809 23.5918 74.6155 21.8466 74.6155 19.3665C74.6155 16.8864 72.809 15.1411 70.4514 15.1411C68.1244 15.1411 66.3179 16.8864 66.3179 19.3665C66.3179 21.8466 68.1244 23.5918 70.4514 23.5918Z" fill="#EFF2F7"/>
<path d="M54.3948 27.4497C49.7408 27.4497 46.3115 23.9286 46.3115 19.3665C46.3115 14.8043 49.7408 11.2832 54.3948 11.2832C57.3954 11.2832 59.998 12.8754 61.2533 15.233L57.8547 17.2232C57.2423 15.9678 55.9257 15.1717 54.3642 15.1717C52.0065 15.1717 50.2613 16.917 50.2613 19.3665C50.2613 21.7853 52.0065 23.5306 54.3642 23.5306C55.9563 23.5306 57.2729 22.7651 57.8853 21.5098L61.3145 23.4693C59.998 25.8576 57.3954 27.4497 54.3948 27.4497Z" fill="#EFF2F7"/>
<path fill-rule="evenodd" clip-rule="evenodd" d="M12.6035 2.85059C11.2824 2.85059 10.2115 3.92152 10.2115 5.24259V12.7137H2.60245C1.28138 12.7137 0.210449 13.7847 0.210449 15.1057V32.742C0.210449 34.0631 1.28138 35.134 2.60245 35.134H20.0292C21.3503 35.134 22.4212 34.0631 22.4212 32.742V25.2709H30.0302C31.3513 25.2709 32.4222 24.1999 32.4222 22.8789V5.24259C32.4222 3.92152 31.3513 2.85059 30.0302 2.85059H12.6035ZM22.4212 25.2709V15.1057C22.4212 13.7847 21.3503 12.7137 20.0292 12.7137H10.2115V22.8789C10.2115 24.1999 11.2824 25.2709 12.6035 25.2709H22.4212Z" fill="#EFF2F7"/>
</svg>
