<svg width="143" height="33" viewBox="0 0 143 33" fill="none" xmlns="http://www.w3.org/2000/svg">
<path d="M137.082 26.4516C137.469 25.8521 137.691 25.1946 137.749 24.4791C137.807 23.7636 137.836 23.0578 137.836 22.3616C137.275 23.0771 136.589 23.5799 135.777 23.87C134.964 24.16 134.085 24.3051 133.137 24.3051C132.035 24.3051 131.077 24.1407 130.265 23.812C129.472 23.4832 128.844 22.9804 128.38 22.3036C127.916 21.6848 127.597 20.9596 127.423 20.1281C127.249 19.2772 127.162 18.3587 127.162 17.3724V8.78638H131.252V16.8793C131.252 17.4014 131.29 17.9139 131.368 18.4167C131.464 18.9001 131.658 19.3062 131.948 19.635C132.412 20.3311 133.253 20.6792 134.471 20.6792C135.051 20.6792 135.593 20.5632 136.096 20.3311C136.598 20.0797 136.995 19.693 137.285 19.1709C137.536 18.7261 137.691 18.262 137.749 17.7785C137.807 17.2757 137.836 16.7343 137.836 16.1541V8.78638H141.955V21.3464C141.955 22.0425 141.945 22.758 141.926 23.4929C141.926 24.2084 141.868 24.9142 141.752 25.6104C141.655 26.3066 141.472 26.9834 141.201 27.6409C140.93 28.2984 140.553 28.9075 140.07 29.4683C139.393 30.2418 138.503 30.8606 137.401 31.3247C136.318 31.7889 135.013 32.0112 133.485 31.9919C132.363 32.0112 131.252 31.8565 130.149 31.5278C129.047 31.2184 128.032 30.764 127.104 30.1645L128.409 26.6836C128.912 27.0511 129.579 27.3895 130.41 27.6989C131.261 28.0083 132.257 28.163 133.398 28.163C134.326 28.163 135.08 28.0083 135.661 27.6989C136.26 27.4088 136.734 26.9931 137.082 26.4516Z" fill="#EFF2F7"/>
<path d="M118.216 20.6792C118.99 20.6792 119.599 20.4955 120.043 20.1281C120.508 19.7606 120.788 19.3449 120.885 18.8808H125.178C125.042 19.867 124.762 20.6985 124.336 21.3754C123.911 22.0522 123.379 22.613 122.741 23.0578C122.122 23.5025 121.416 23.8216 120.624 24.015C119.831 24.2084 119.009 24.3051 118.158 24.3051C116.882 24.3051 115.77 24.131 114.822 23.7829C113.894 23.4155 113.12 22.8934 112.502 22.2166C111.883 21.5204 111.409 20.6889 111.08 19.722C110.771 18.7357 110.616 17.6335 110.616 16.4152C110.616 15.2356 110.79 14.1526 111.138 13.1664C111.486 12.1802 111.98 11.339 112.618 10.6428C113.275 9.94664 114.078 9.41485 115.025 9.04742C115.973 8.66066 117.056 8.46729 118.274 8.46729C119.164 8.46729 119.995 8.57364 120.769 8.78636C121.561 8.99908 122.258 9.32782 122.857 9.7726C123.476 10.2174 123.979 10.7878 124.365 11.484C124.772 12.1608 125.042 12.973 125.178 13.9206H120.885C120.788 13.4565 120.498 13.0407 120.014 12.6733C119.55 12.3059 118.941 12.1222 118.187 12.1222C117.549 12.1222 116.998 12.2382 116.534 12.4702C116.07 12.7023 115.702 13.0214 115.431 13.4275C115.161 13.8336 114.967 14.2977 114.851 14.8198C114.735 15.3419 114.677 15.8931 114.677 16.4732C114.677 17.092 114.745 17.6625 114.88 18.1846C115.016 18.6874 115.219 19.1322 115.489 19.5189C115.76 19.8863 116.118 20.1764 116.563 20.3891C117.027 20.5825 117.578 20.6792 118.216 20.6792Z" fill="#EFF2F7"/>
<path d="M98.1634 10.7296C99.401 9.24062 100.929 8.48644 102.747 8.4671C103.733 8.44777 104.603 8.61214 105.357 8.96022C106.111 9.28897 106.72 9.74341 107.185 10.3235C107.745 11.0004 108.132 11.7932 108.345 12.7021C108.558 13.5917 108.664 14.5876 108.664 15.6898V24.0728H104.545V16.0089C104.545 15.4674 104.487 14.955 104.371 14.4715C104.274 13.9687 104.1 13.5433 103.849 13.1952C103.597 12.8278 103.259 12.5571 102.834 12.383C102.427 12.209 101.963 12.122 101.441 12.122C100.784 12.1413 100.223 12.2863 99.7588 12.5571C99.314 12.8278 98.9756 13.1759 98.7436 13.6013C98.5115 14.0074 98.3471 14.4715 98.2504 14.9937C98.1731 15.4964 98.1344 16.0089 98.1344 16.531V24.0728H94.0444V8.78618H97.9604L98.1634 10.7296Z" fill="#EFF2F7"/>
<path d="M84.8452 20.9693C85.4254 20.9693 85.9185 20.8822 86.3246 20.7082C86.75 20.5148 87.0981 20.2054 87.3688 19.78H91.6618C91.4491 20.5728 91.1204 21.2593 90.6756 21.8395C90.2502 22.4196 89.7281 22.8934 89.1092 23.2608C88.5098 23.6282 87.8426 23.899 87.1078 24.073C86.3729 24.2277 85.5994 24.3051 84.7872 24.3051C82.3119 24.3051 80.4362 23.6089 79.1599 22.2166C77.9029 20.8242 77.2744 18.8711 77.2744 16.3572C77.2744 15.2162 77.4388 14.1623 77.7675 13.1954C78.1156 12.2285 78.5991 11.397 79.2179 10.7008C79.8367 9.98531 80.6005 9.43418 81.5094 9.04742C82.4376 8.66066 83.4916 8.46729 84.6712 8.46729C86.0442 8.46729 87.2335 8.70901 88.239 9.19246C89.2446 9.67591 90.0375 10.3431 90.6176 11.1939C91.2171 12.0255 91.6135 13.002 91.8069 14.1236C92.0196 15.2452 92.0196 16.4442 91.8069 17.7205H81.3644C81.4417 18.6294 81.7608 19.4029 82.3216 20.041C82.8824 20.6599 83.7236 20.9693 84.8452 20.9693ZM88.007 14.9068C88.007 14.4234 87.92 13.9979 87.7459 13.6305C87.5719 13.2438 87.3398 12.9344 87.0497 12.7023C86.7597 12.4509 86.4116 12.2672 86.0055 12.1512C85.6187 12.0351 85.2126 11.9771 84.7872 11.9771C83.7623 11.9965 82.9598 12.2769 82.3796 12.8183C81.8188 13.3404 81.4901 14.0366 81.3934 14.9068H88.007Z" fill="#EFF2F7"/>
<path d="M71.1061 22.5065C70.526 23.164 69.8298 23.6281 69.0176 23.8988C68.2054 24.1695 67.3255 24.3049 66.378 24.3049C65.4304 24.3049 64.5022 24.1599 63.5933 23.8698C62.7038 23.5604 61.9303 23.0673 61.2728 22.3904C60.5379 21.6169 60.0255 20.7274 59.7354 19.7218C59.4453 18.7162 59.3003 17.6817 59.3003 16.6181C59.3003 14.1041 59.9965 12.093 61.3888 10.5846C61.9883 9.92714 62.7618 9.41468 63.7093 9.04726C64.6762 8.67984 65.7108 8.5058 66.8131 8.52514C67.5286 8.48646 68.3021 8.61216 69.1336 8.90223C69.9652 9.19229 70.6807 9.67574 71.2801 10.3526L71.7153 8.7862H75.2541V23.1156C75.2541 23.7344 75.2154 24.3436 75.1381 24.9431C75.0801 25.5619 74.9737 26.1517 74.819 26.7125C74.6643 27.2926 74.4322 27.8437 74.1228 28.3659C73.7747 29.004 73.3493 29.5455 72.8465 29.9903C72.3631 30.435 71.8216 30.8024 71.2221 31.0925C70.6227 31.4019 69.9845 31.6243 69.3077 31.7597C68.6309 31.895 67.9444 31.9627 67.2482 31.9627C66.3586 31.9627 65.5078 31.8564 64.6956 31.6436C63.8834 31.4503 63.1389 31.1215 62.462 30.6574C61.8046 30.2126 61.2534 29.6422 60.8087 28.946C60.3832 28.2498 60.1028 27.4183 59.9675 26.4514H64.3185C64.3958 26.9155 64.7052 27.3313 65.2467 27.6987C65.7882 28.0661 66.4457 28.2498 67.2192 28.2498C68.0507 28.2498 68.7275 28.0855 69.2497 27.7567C69.7911 27.428 70.1972 26.9929 70.468 26.4514C70.7387 25.9099 70.9127 25.2911 70.9901 24.595C71.0674 23.8988 71.1061 23.2026 71.1061 22.5065ZM67.3062 20.679C67.9444 20.679 68.5052 20.563 68.9886 20.3309C69.4914 20.0989 69.8975 19.7895 70.2069 19.4027C70.5163 18.9966 70.7484 18.5325 70.9031 18.0104C71.0578 17.4689 71.1351 16.8985 71.1351 16.299C71.1351 15.1 70.7967 14.1138 70.1199 13.3403C69.4624 12.5474 68.5148 12.1413 67.2772 12.122C66.639 12.122 66.0686 12.238 65.5658 12.4701C65.0823 12.7021 64.6762 13.0115 64.3475 13.3983C64.0381 13.7851 63.806 14.2395 63.6513 14.7616C63.4966 15.2837 63.4193 15.8445 63.4193 16.444C63.4193 17.0822 63.4966 17.6623 63.6513 18.1844C63.8254 18.6872 64.0768 19.132 64.4055 19.5188C64.7343 19.8862 65.1404 20.1762 65.6238 20.389C66.1072 20.5823 66.6681 20.679 67.3062 20.679Z" fill="#EFF2F7"/>
<path d="M53.463 22.1876C52.8828 22.9611 52.177 23.5122 51.3455 23.841C50.5139 24.1697 49.547 24.3244 48.4448 24.3051C47.0331 24.2664 45.8535 23.87 44.9059 23.1158C44.4031 22.6903 44.0067 22.1876 43.7166 21.6074C43.4459 21.0079 43.3105 20.3021 43.3105 19.4899C43.3299 18.6584 43.5136 17.9235 43.8617 17.2854C44.2291 16.6279 44.7802 16.0864 45.5151 15.661C46.1339 15.3323 46.8301 15.1002 47.6036 14.9648C48.3964 14.8295 49.257 14.7618 50.1852 14.7618H53.3179C53.3759 13.8142 53.1536 13.1084 52.6508 12.6443C52.1673 12.1608 51.4808 11.9094 50.5913 11.8901C50.3012 11.8901 50.0015 11.9094 49.6921 11.9481C49.3827 11.9868 49.0926 12.0641 48.8219 12.1802C48.5705 12.2962 48.3481 12.4606 48.1547 12.6733C47.9807 12.8667 47.8646 13.1084 47.8066 13.3985H43.6006C43.6973 12.4702 43.9487 11.6967 44.3548 11.0779C44.7802 10.4398 45.312 9.9273 45.9502 9.54054C46.5883 9.15378 47.2942 8.88305 48.0677 8.72835C48.8605 8.55431 49.6727 8.46729 50.5043 8.46729C50.9684 8.46729 51.4422 8.49629 51.9256 8.55431C52.4091 8.59298 52.8828 8.68967 53.3469 8.84438C53.8111 8.97974 54.2462 9.17312 54.6523 9.42451C55.0777 9.65657 55.4741 9.96598 55.8415 10.3527C56.499 11.1069 56.9051 11.9771 57.0598 12.9634C57.2339 13.9303 57.3112 14.8778 57.2919 15.806V24.073H53.55L53.463 22.1876ZM53.3179 17.3144H50.3302C50.0402 17.3144 49.7114 17.3434 49.344 17.4014C48.9766 17.4594 48.6575 17.5658 48.3868 17.7205C48.116 17.8752 47.884 18.0782 47.6906 18.3296C47.5165 18.581 47.4295 18.8904 47.4295 19.2579C47.4295 19.5673 47.4875 19.838 47.6036 20.0701C47.7389 20.3021 47.9033 20.4955 48.0967 20.6502C48.3094 20.8049 48.5608 20.9306 48.8509 21.0273C49.1409 21.1046 49.431 21.1433 49.7211 21.1433C50.2819 21.1626 50.804 21.066 51.2874 20.8532C51.7902 20.6405 52.2253 20.3408 52.5928 19.954C52.8248 19.6446 52.9989 19.2965 53.1149 18.9098C53.2503 18.5037 53.3179 17.9719 53.3179 17.3144Z" fill="#EFF2F7"/>
<path fill-rule="evenodd" clip-rule="evenodd" d="M32.2036 17.61C32.0397 20.4737 31.1138 23.248 29.514 25.6422C27.7433 28.2923 25.2265 30.3578 22.2819 31.5775C19.3373 32.7972 16.0971 33.1163 12.9711 32.4945C9.84509 31.8727 6.97368 30.3379 4.71997 28.0842C2.46625 25.8305 0.93145 22.9591 0.309651 19.8331C-0.312147 16.7071 0.00698235 13.4669 1.22668 10.5223C2.44639 7.57767 4.51188 5.06085 7.16197 3.29012C9.5562 1.69035 12.3304 0.764462 15.1941 0.600586V8.68452C13.9264 8.83035 12.7068 9.27584 11.6385 9.98967C10.3134 10.875 9.28067 12.1334 8.67082 13.6058C8.06097 15.0781 7.90141 16.6982 8.2123 18.2611C8.5232 19.8241 9.2906 21.2599 10.4175 22.3867C11.5443 23.5136 12.98 24.281 14.543 24.5919C16.106 24.9028 17.7261 24.7432 19.1984 24.1334C20.6707 23.5235 21.9291 22.4908 22.8145 21.1657C23.5283 20.0974 23.9738 18.8778 24.1197 17.61H32.2036Z" fill="#EFF2F7"/>
<path fill-rule="evenodd" clip-rule="evenodd" d="M24.1681 0.574219H17.5762V8.63168H24.1681L24.1681 15.2238L32.2256 15.2238L32.2256 8.63168H32.2262V0.574219H30.7516H24.1681Z" fill="#EFF2F7"/>
</svg>
