<svg width="70" height="70" viewBox="0 0 70 70" fill="none" xmlns="http://www.w3.org/2000/svg">
<path opacity="0.4" d="M42.5678 16.2783C41.1659 16.0193 39.8783 16.9139 39.6114 18.2824C39.3446 19.6509 40.242 20.987 41.6058 21.2548C45.7119 22.0553 48.8824 25.2337 49.686 29.3538V29.3568C49.9148 30.5428 50.9589 31.4051 52.1614 31.4051C52.3227 31.4051 52.484 31.3904 52.6482 31.3609C54.012 31.0872 54.9095 29.7541 54.6426 28.3827C53.4431 22.2289 48.7064 17.476 42.5678 16.2783" fill="#FFC32A"/>
<path opacity="0.4" d="M42.3842 6.02335C41.7273 5.92918 41.0674 6.12341 40.5424 6.54131C40.0027 6.9651 39.6654 7.57724 39.5921 8.26295C39.4367 9.64908 40.4368 10.9028 41.8211 11.0588C51.3677 12.1241 58.788 19.561 59.8615 29.1374C60.0052 30.4205 61.0815 31.3887 62.3662 31.3887C62.463 31.3887 62.5568 31.3829 62.6536 31.3711C63.3252 31.2975 63.9235 30.965 64.3459 30.4352C64.7653 29.9055 64.9559 29.2463 64.8797 28.5723C63.5423 16.6239 54.2948 7.35063 42.3842 6.02335" fill="#FFC32A"/>
<path fill-rule="evenodd" clip-rule="evenodd" d="M32.5983 38.3133C44.3461 50.0578 47.0112 36.4707 54.491 43.9454C61.7022 51.1545 65.8468 52.5989 56.7104 61.7328C55.5659 62.6525 48.2947 73.7175 22.7411 48.171C-2.81574 22.6213 8.24285 15.3426 9.16282 14.1985C18.3214 5.03932 19.7409 9.20806 26.952 16.4172C34.4319 23.895 20.8505 26.5688 32.5983 38.3133Z" fill="#FFC32A"/>
</svg>
