<svg width="156" height="38" viewBox="0 0 156 38" fill="none" xmlns="http://www.w3.org/2000/svg">
<path d="M146.896 28.7556C145.283 28.7556 143.868 28.413 142.652 27.7277C141.436 27.0203 140.497 26.0366 139.834 24.7766C139.17 23.5166 138.839 22.0355 138.839 20.3333C138.839 18.6533 139.17 17.1833 139.834 15.9232C140.497 14.6411 141.436 13.6463 142.652 12.939C143.868 12.2095 145.283 11.8447 146.896 11.8447C148.532 11.8447 149.947 12.2095 151.141 12.939C152.357 13.6684 153.296 14.6743 153.959 15.9564C154.622 17.2164 154.954 18.6643 154.954 20.3002C154.954 20.5433 154.943 20.7865 154.921 21.0297C154.921 21.2507 154.899 21.4386 154.854 21.5934H142.387V18.3438H151.572L150.909 19.9023C150.909 18.5317 150.577 17.4154 149.914 16.5532C149.273 15.6911 148.267 15.2601 146.896 15.2601C145.703 15.2601 144.741 15.6359 144.012 16.3875C143.282 17.1169 142.917 18.1006 142.917 19.3386V21.096C142.917 22.4002 143.282 23.4281 144.012 24.1797C144.763 24.9092 145.78 25.274 147.062 25.274C148.19 25.274 149.074 25.0418 149.715 24.5776C150.356 24.1134 150.909 23.5387 151.373 22.8534L154.39 24.5776C153.661 25.9261 152.666 26.965 151.406 27.6945C150.168 28.4019 148.665 28.7556 146.896 28.7556Z" fill="#EFF2F7"/>
<path d="M131.943 12.2095L133.038 16.6859V28.424H128.694V12.2095H131.943ZM132.142 18.9075L131.347 18.5428V15.2269L131.645 14.8622C131.888 14.4643 132.253 14.0332 132.739 13.569C133.248 13.1048 133.822 12.7068 134.463 12.3753C135.127 12.0216 135.812 11.8447 136.519 11.8447C136.873 11.8447 137.194 11.8668 137.481 11.911C137.768 11.9553 137.989 12.0326 138.144 12.1432V16.089H137.083C135.646 16.089 134.541 16.3211 133.767 16.7854C132.993 17.2275 132.452 17.9349 132.142 18.9075Z" fill="#EFF2F7"/>
<path d="M115.738 28.8219C114.522 28.8219 113.549 28.634 112.82 28.2582C112.09 27.8824 111.526 27.3851 111.129 26.7661C110.753 26.125 110.499 25.3955 110.366 24.5776C110.233 23.7597 110.167 22.9086 110.167 22.0244V12.2095H114.511V22.0576C114.511 23.0523 114.721 23.7155 115.141 24.0471C115.583 24.3787 116.102 24.5445 116.699 24.5445C117.252 24.5445 117.805 24.445 118.357 24.246C118.91 24.0471 119.429 23.7597 119.916 23.3839C120.424 22.986 120.844 22.5329 121.176 22.0244L121.706 24.3124H120.645V12.2095H124.989V28.424H121.739L120.844 25.3403L122.237 25.3734C121.684 26.0145 121.054 26.6003 120.347 27.1308C119.661 27.6614 118.921 28.0814 118.125 28.3909C117.351 28.6782 116.556 28.8219 115.738 28.8219Z" fill="#EFF2F7"/>
<path d="M104.439 28.7225C102.781 28.7225 101.465 28.2914 100.493 27.4293C99.5422 26.545 99.0669 25.1413 99.0669 23.2181V12.4084L99.0006 12.2095L99.8959 8.39624H103.411V22.5218C103.411 23.2292 103.576 23.7487 103.908 24.0803C104.262 24.3897 104.704 24.5445 105.234 24.5445C105.588 24.5445 105.909 24.5224 106.196 24.4782C106.483 24.4118 106.738 24.3455 106.959 24.2792V28.3246C106.605 28.4572 106.229 28.5567 105.831 28.623C105.433 28.6893 104.969 28.7225 104.439 28.7225ZM96.5469 16.2217V12.2095H106.959V16.2217H96.5469Z" fill="#EFF2F7"/>
<path d="M89.1256 11.8447C90.2309 11.8447 91.1151 12.0326 91.7783 12.4084C92.4635 12.7842 92.972 13.2927 93.3036 13.9337C93.6573 14.5748 93.8894 15.3043 93.9999 16.1222C94.1104 16.918 94.1657 17.747 94.1657 18.6091V28.424H89.8219V18.5759C89.8219 17.5812 89.623 16.918 89.2251 16.5864C88.8493 16.2548 88.3629 16.089 87.7661 16.089C87.2134 16.089 86.6497 16.1996 86.075 16.4206C85.5002 16.6196 84.9586 16.918 84.4502 17.3159C83.9639 17.6917 83.5439 18.1228 83.1902 18.6091L82.6265 16.3543H83.7207V28.424H79.377V12.2095H82.6265L83.5218 15.3264L82.1291 15.2601C82.7039 14.5969 83.356 14.0111 84.0855 13.5027C84.8371 12.9942 85.6329 12.5963 86.4729 12.3089C87.3129 11.9995 88.1971 11.8447 89.1256 11.8447Z" fill="#EFF2F7"/>
<path d="M68.663 28.7556C67.0493 28.7556 65.6345 28.413 64.4187 27.7277C63.2029 27.0203 62.2634 26.0366 61.6002 24.7766C60.9371 23.5166 60.6055 22.0355 60.6055 20.3333C60.6055 18.6533 60.9371 17.1833 61.6002 15.9232C62.2634 14.6411 63.2029 13.6463 64.4187 12.939C65.6345 12.2095 67.0493 11.8447 68.663 11.8447C70.2988 11.8447 71.7136 12.2095 72.9073 12.939C74.1231 13.6684 75.0626 14.6743 75.7258 15.9564C76.389 17.2164 76.7205 18.6643 76.7205 20.3002C76.7205 20.5433 76.7095 20.7865 76.6874 21.0297C76.6874 21.2507 76.6653 21.4386 76.6211 21.5934H64.1534V18.3438H73.3384L72.6752 19.9023C72.6752 18.5317 72.3436 17.4154 71.6804 16.5532C71.0394 15.6911 70.0336 15.2601 68.663 15.2601C67.4693 15.2601 66.5077 15.6359 65.7782 16.3875C65.0487 17.1169 64.684 18.1006 64.684 19.3386V21.096C64.684 22.4002 65.0487 23.4281 65.7782 24.1797C66.5298 24.9092 67.5467 25.274 68.8288 25.274C69.9562 25.274 70.8404 25.0418 71.4815 24.5776C72.1226 24.1134 72.6752 23.5387 73.1394 22.8534L76.1569 24.5776C75.4274 25.9261 74.4326 26.965 73.1726 27.6945C71.9347 28.4019 70.4315 28.7556 68.663 28.7556Z" fill="#EFF2F7"/>
<path d="M59.9409 12.2095L54.0056 28.424H49.8276L43.5938 12.2095H48.1696L52.4139 24.6108H51.386L55.4645 12.2095H59.9409Z" fill="#EFF2F7"/>
<path fill-rule="evenodd" clip-rule="evenodd" d="M12.3897 3.10791C11.8246 3.10791 11.3665 3.566 11.3665 4.13108V13.8511H11.3664C5.43299 13.8511 0.623047 18.6611 0.623047 24.5944C0.623047 30.5278 5.433 35.3378 11.3664 35.3378H21.0865C21.6516 35.3378 22.1096 34.8797 22.1096 34.3146V24.5945H22.1098C28.0431 24.5945 32.8531 19.7846 32.8531 13.8512C32.8531 7.91785 28.0432 3.10791 22.1098 3.10791H12.3897ZM22.1096 24.5945V14.8743C22.1096 14.3092 21.6516 13.8511 21.0865 13.8511H11.3665V23.5713C11.3665 24.1364 11.8246 24.5945 12.3897 24.5945H22.1096Z" fill="#EFF2F7"/>
<path d="M12.2746 3.10791C11.7732 3.10791 11.3667 3.51438 11.3667 4.01579L11.3667 13.8512H21.2021C21.7035 13.8512 22.11 14.2577 22.11 14.7591L22.11 24.5945C28.0434 24.5945 32.8533 19.7846 32.8533 13.8512C32.8533 7.91785 28.0434 3.10791 22.11 3.10791H12.2746Z" fill="#EFF2F7"/>
</svg>
