<svg width="444" height="385" viewBox="0 0 444 385" fill="none" xmlns="http://www.w3.org/2000/svg">
<g clip-path="url(#clip0_2499_11842)">
<path d="M235.988 188.405V383.664H40.7288L235.988 188.405Z" fill="#FF5F55"/>
<path d="M8.22461e-05 383.665C13.5062 383.665 26.8801 381.004 39.3581 375.836C51.8362 370.667 63.174 363.091 72.7243 353.541C82.2746 343.991 89.8503 332.653 95.0189 320.175C100.187 307.697 102.848 294.323 102.848 280.817C102.848 267.311 100.187 253.937 95.0188 241.459C89.8503 228.981 82.2746 217.643 72.7243 208.093C63.174 198.542 51.8362 190.967 39.3581 185.798C26.8801 180.63 13.5062 177.969 7.5886e-05 177.969L8.22461e-05 280.817V383.665Z" fill="#77E36E"/>
<path d="M444.094 280.816C444.094 294.448 441.409 307.946 436.192 320.54C430.975 333.135 423.329 344.578 413.69 354.217C404.051 363.856 392.607 371.503 380.013 376.719C367.419 381.936 353.92 384.621 340.288 384.621C326.656 384.621 313.158 381.936 300.564 376.719C287.969 371.503 276.526 363.856 266.887 354.217C257.248 344.578 249.601 333.135 244.385 320.54C239.168 307.946 236.483 294.448 236.483 280.816L340.288 280.816H444.094Z" fill="#4187FF"/>
<path d="M444.094 177.011C444.094 190.642 441.409 204.141 436.192 216.735C430.975 229.329 423.329 240.773 413.69 250.412C404.051 260.051 392.607 267.697 380.013 272.914C367.419 278.131 353.92 280.816 340.288 280.816C326.656 280.816 313.158 278.131 300.564 272.914C287.969 267.697 276.526 260.051 266.887 250.412C257.248 240.773 249.601 229.329 244.385 216.735C239.168 204.141 236.483 190.642 236.483 177.011L340.288 177.011H444.094Z" fill="#FF5F55"/>
<path d="M240.654 52L268.166 80.766H213.142L240.654 52Z" fill="#FFC32A"/>
<rect x="109.531" y="142.664" width="262.246" height="54.2981" fill="#ECB529"/>
<rect x="139.159" y="68.6289" width="202.989" height="160.077" fill="white"/>
<rect x="165.197" y="98.0996" width="111.548" height="14.3306" fill="#4187FF"/>
<rect x="165.197" y="123.727" width="150.913" height="14.3306" fill="#4187FF"/>
<rect x="165.197" y="149.355" width="95.8993" height="14.3306" fill="#4187FF"/>
<path d="M109.531 142.664L240.654 223.22L371.777 142.664V294.022H109.531V142.664Z" fill="#FFC32A"/>
</g>
<defs>
<clipPath id="clip0_2499_11842">
<rect width="444" height="385" fill="white"/>
</clipPath>
</defs>
</svg>
