<svg width="70" height="70" viewBox="0 0 70 70" fill="none" xmlns="http://www.w3.org/2000/svg">
<path opacity="0.4" d="M35.07 0.15564C14.7497 0.15564 0.0253906 16.7336 0.0253906 35.1303C0.0253906 41.006 1.73915 47.0566 4.74697 52.5826C5.30656 53.492 5.37651 54.6461 4.99179 55.7304L2.64849 63.5647C2.12387 65.4533 3.7327 66.8523 5.51641 66.2927L12.5813 64.1942C14.5049 63.5647 16.0088 64.3691 17.796 65.4533C22.9023 68.4611 29.2642 70 35 70C52.3475 70 69.9747 56.6047 69.9747 35.0254C69.9747 16.4188 54.9356 0.15564 35.07 0.15564" fill="#FF5F55"/>
<path fill-rule="evenodd" clip-rule="evenodd" d="M34.9338 39.6423C32.4506 39.6073 30.4571 37.6138 30.4571 35.1306C30.4571 32.6824 32.4856 30.6538 34.9338 30.6888C37.417 30.6888 39.4106 32.6824 39.4106 35.1656C39.4106 37.6138 37.417 39.6423 34.9338 39.6423ZM18.8068 39.6428C16.3586 39.6428 14.3301 37.6143 14.3301 35.1661C14.3301 32.6829 16.3236 30.6893 18.8068 30.6893C21.29 30.6893 23.2836 32.6829 23.2836 35.1661C23.2836 37.6143 21.29 39.6079 18.8068 39.6428ZM46.5782 35.1661C46.5782 37.6143 48.5717 39.6428 51.0549 39.6428C53.5381 39.6428 55.5317 37.6143 55.5317 35.1661C55.5317 32.6829 53.5381 30.6893 51.0549 30.6893C48.5717 30.6893 46.5782 32.6829 46.5782 35.1661Z" fill="#FF5F55"/>
</svg>
