<svg width="201" height="44" viewBox="0 0 201 44" fill="none" xmlns="http://www.w3.org/2000/svg">
<path d="M187.402 15.8361H190.993L191.133 17.7157C191.601 17.005 192.181 16.4626 192.873 16.0886C193.583 15.6959 194.369 15.4995 195.229 15.4995C198.726 15.4995 200.465 17.6409 200.447 21.9235V22.6809H200.475V29.8624H196.688V22.6809H196.66C196.66 21.3344 196.426 20.3993 195.958 19.8757C195.51 19.3333 194.855 19.0622 193.995 19.0622C193.078 19.0622 192.377 19.3614 191.891 19.9599C191.423 20.5396 191.189 21.3812 191.189 22.4846V29.8624H187.402V15.8361Z" fill="#EFF2F7"/>
<path d="M177.695 30.199C176.274 30.199 175.002 29.8904 173.88 29.2733C172.758 28.6374 171.879 27.7678 171.243 26.6644C170.626 25.5423 170.317 24.2706 170.317 22.8493C170.317 21.4279 170.626 20.1656 171.243 19.0622C171.879 17.9401 172.749 17.0704 173.852 16.4533C174.955 15.8174 176.218 15.4995 177.639 15.4995C179.06 15.4995 180.323 15.8174 181.426 16.4533C182.548 17.0704 183.418 17.9401 184.035 19.0622C184.671 20.1656 184.989 21.4279 184.989 22.8493C184.989 24.2706 184.68 25.5423 184.063 26.6644C183.446 27.7678 182.576 28.6374 181.454 29.2733C180.351 29.8904 179.098 30.199 177.695 30.199ZM174.217 22.8493C174.217 23.9901 174.535 24.9251 175.17 25.6545C175.825 26.3652 176.667 26.7205 177.695 26.7205C178.705 26.7205 179.528 26.3652 180.164 25.6545C180.8 24.9251 181.118 23.9901 181.118 22.8493C181.118 21.7085 180.79 20.7827 180.136 20.0721C179.5 19.3427 178.668 18.978 177.639 18.978C176.648 18.978 175.825 19.3427 175.17 20.0721C174.535 20.7827 174.217 21.7085 174.217 22.8493Z" fill="#EFF2F7"/>
<path d="M163.903 15.836H167.69V29.8622H163.903V15.836ZM165.81 13.6199C165.212 13.6199 164.697 13.4048 164.267 12.9747C163.837 12.5445 163.622 12.0396 163.622 11.4598C163.622 10.8614 163.837 10.3471 164.267 9.91694C164.716 9.4868 165.23 9.27173 165.81 9.27173C166.39 9.27173 166.895 9.4868 167.325 9.91694C167.755 10.3471 167.97 10.8614 167.97 11.4598C167.97 12.0396 167.755 12.5445 167.325 12.9747C166.914 13.4048 166.409 13.6199 165.81 13.6199Z" fill="#EFF2F7"/>
<path d="M158.172 30.199C156.62 30.199 155.432 29.8156 154.609 29.0489C153.805 28.2821 153.403 27.1787 153.403 25.7387V19.0341H151.159V15.8361H153.403V11.46H157.19V15.8361H160.668V19.0341H157.19V24.8971C157.19 25.5143 157.312 25.9724 157.555 26.2717C157.816 26.5522 158.209 26.6925 158.733 26.6925C159.107 26.6925 159.528 26.5241 159.995 26.1875L161.342 29.0208C160.874 29.3761 160.36 29.6567 159.799 29.8624C159.238 30.0868 158.695 30.199 158.172 30.199Z" fill="#EFF2F7"/>
<path d="M145.767 28.2634C144.982 29.5538 143.692 30.199 141.896 30.199C140.213 30.199 138.904 29.825 137.969 29.0769C137.052 28.3288 136.594 27.2722 136.594 25.907C136.594 24.4295 137.09 23.3074 138.081 22.5407C139.072 21.7739 140.475 21.3905 142.289 21.3905H145.627C145.365 19.6513 144.514 18.7817 143.074 18.7817C141.84 18.7817 140.905 19.3053 140.269 20.3526L136.931 19.2024C137.38 18.1551 138.109 17.2762 139.119 16.5655C140.148 15.8548 141.466 15.4995 143.074 15.4995C145.169 15.4995 146.759 16.0886 147.843 17.2668C148.928 18.4263 149.452 20.0347 149.414 22.0918L149.358 29.8624H145.824L145.767 28.2634ZM140.465 25.7948C140.465 26.1875 140.652 26.5054 141.027 26.7486C141.401 26.973 141.915 27.0852 142.569 27.0852C143.149 27.0852 143.673 26.9449 144.14 26.6644C144.627 26.3839 145.01 26.0192 145.291 25.5703C145.571 25.1215 145.711 24.654 145.711 24.1677H143.635C142.495 24.1677 141.681 24.308 141.195 24.5885C140.709 24.8503 140.465 25.2524 140.465 25.7948Z" fill="#EFF2F7"/>
<path d="M128.827 30.199C127.368 30.199 126.068 29.8904 124.928 29.2733C123.787 28.6374 122.889 27.7678 122.235 26.6644C121.599 25.5423 121.281 24.2706 121.281 22.8493C121.281 21.4279 121.599 20.1656 122.235 19.0622C122.87 17.9401 123.759 17.0704 124.9 16.4533C126.04 15.8174 127.331 15.4995 128.771 15.4995C130.211 15.4995 131.501 15.8548 132.642 16.5655C133.802 17.2762 134.643 18.2767 135.167 19.5671L131.604 20.8295C131.342 20.2871 130.94 19.857 130.398 19.5391C129.855 19.2211 129.257 19.0622 128.602 19.0622C127.593 19.0622 126.77 19.4175 126.134 20.1282C125.498 20.8201 125.18 21.7272 125.18 22.8493C125.18 23.9527 125.498 24.8597 126.134 25.5703C126.788 26.281 127.63 26.6363 128.659 26.6363C129.313 26.6363 129.912 26.468 130.454 26.1314C130.996 25.7761 131.398 25.3085 131.66 24.7288L135.251 25.9911C134.709 27.319 133.867 28.3569 132.726 29.105C131.585 29.8343 130.286 30.199 128.827 30.199Z" fill="#EFF2F7"/>
<path d="M114.865 15.836H118.653V29.8622H114.865V15.836ZM116.773 13.6199C116.175 13.6199 115.66 13.4048 115.23 12.9747C114.8 12.5445 114.585 12.0396 114.585 11.4598C114.585 10.8614 114.8 10.3471 115.23 9.91694C115.679 9.4868 116.193 9.27173 116.773 9.27173C117.353 9.27173 117.858 9.4868 118.288 9.91694C118.718 10.3471 118.933 10.8614 118.933 11.4598C118.933 12.0396 118.718 12.5445 118.288 12.9747C117.876 13.4048 117.372 13.6199 116.773 13.6199Z" fill="#EFF2F7"/>
<path d="M107.683 9.66455H111.47V29.8623H107.683V9.66455Z" fill="#EFF2F7"/>
<path d="M90.9756 15.8361H94.5663L94.7066 17.7718C95.1741 17.0424 95.7632 16.4813 96.4739 16.0886C97.2032 15.6959 98.0355 15.4995 98.9705 15.4995C100.242 15.4995 101.355 15.7987 102.309 16.3972C103.281 16.9956 104.02 17.8466 104.525 18.95C105.049 20.0534 105.31 21.3531 105.31 22.8493C105.31 24.3267 105.049 25.6265 104.525 26.7486C104.02 27.852 103.281 28.7029 102.309 29.3013C101.355 29.8998 100.242 30.199 98.9705 30.199C98.0542 30.199 97.2406 30.012 96.53 29.638C95.8193 29.2452 95.2302 28.6935 94.7627 27.9829V35.4729H90.9756V15.8361ZM94.7627 22.8493C94.7627 23.9901 95.0619 24.9251 95.6604 25.6545C96.2775 26.3652 97.063 26.7205 98.0168 26.7205C98.9892 26.7205 99.7934 26.3558 100.429 25.6265C101.065 24.8971 101.383 23.9714 101.383 22.8493C101.383 21.7272 101.065 20.8108 100.429 20.1001C99.8121 19.3708 99.0173 19.0061 98.0448 19.0061C97.0723 19.0061 96.2775 19.3614 95.6604 20.0721C95.0619 20.7827 94.7627 21.7085 94.7627 22.8493Z" fill="#EFF2F7"/>
<path d="M74.1274 15.8361H77.7182L77.8584 17.7718C78.326 17.0424 78.9151 16.4813 79.6257 16.0886C80.3551 15.6959 81.1873 15.4995 82.1224 15.4995C83.3941 15.4995 84.5069 15.7987 85.4606 16.3972C86.4331 16.9956 87.1718 17.8466 87.6768 18.95C88.2004 20.0534 88.4623 21.3531 88.4623 22.8493C88.4623 24.3267 88.2004 25.6265 87.6768 26.7486C87.1718 27.852 86.4331 28.7029 85.4606 29.3013C84.5069 29.8998 83.3941 30.199 82.1224 30.199C81.206 30.199 80.3925 30.012 79.6818 29.638C78.9712 29.2452 78.3821 28.6935 77.9145 27.9829V35.4729H74.1274V15.8361ZM77.9145 22.8493C77.9145 23.9901 78.2138 24.9251 78.8122 25.6545C79.4294 26.3652 80.2148 26.7205 81.1686 26.7205C82.1411 26.7205 82.9453 26.3558 83.5811 25.6265C84.217 24.8971 84.5349 23.9714 84.5349 22.8493C84.5349 21.7272 84.217 20.8108 83.5811 20.1001C82.964 19.3708 82.1692 19.0061 81.1967 19.0061C80.2242 19.0061 79.4294 19.3614 78.8122 20.0721C78.2138 20.7827 77.9145 21.7085 77.9145 22.8493Z" fill="#EFF2F7"/>
<path d="M67.4178 28.2634C66.6323 29.5538 65.3419 30.199 63.5465 30.199C61.8634 30.199 60.5543 29.825 59.6192 29.0769C58.7028 28.3288 58.2446 27.2722 58.2446 25.907C58.2446 24.4295 58.7402 23.3074 59.7314 22.5407C60.7226 21.7739 62.1252 21.3905 63.9393 21.3905H67.2775C67.0157 19.6513 66.1648 18.7817 64.7248 18.7817C63.4904 18.7817 62.5554 19.3053 61.9195 20.3526L58.5813 19.2024C59.0301 18.1551 59.7595 17.2762 60.7694 16.5655C61.7979 15.8548 63.1164 15.4995 64.7248 15.4995C66.8193 15.4995 68.409 16.0886 69.4937 17.2668C70.5784 18.4263 71.102 20.0347 71.0646 22.0918L71.0085 29.8624H67.4739L67.4178 28.2634ZM62.1159 25.7948C62.1159 26.1875 62.3029 26.5054 62.6769 26.7486C63.051 26.973 63.5652 27.0852 64.2198 27.0852C64.7996 27.0852 65.3232 26.9449 65.7907 26.6644C66.277 26.3839 66.6604 26.0192 66.9409 25.5703C67.2214 25.1215 67.3617 24.654 67.3617 24.1677H65.2858C64.145 24.1677 63.3315 24.308 62.8452 24.5885C62.359 24.8503 62.1159 25.2524 62.1159 25.7948Z" fill="#EFF2F7"/>
<path fill-rule="evenodd" clip-rule="evenodd" d="M19.9777 35.3999V27.0111L19.9777 35.3999H32.8524C40.7147 35.3999 47.0883 29.0263 47.0883 21.164C47.0883 14.0535 41.3241 8.28931 34.2136 8.28931H33.533C30.4703 8.28931 27.6449 9.30502 25.3751 11.018C23.6822 9.33167 21.3473 8.28931 18.7691 8.28931H18.4699C13.677 8.28931 9.75321 12.0103 9.42971 16.721C4.84176 17.1671 1.25586 21.0347 1.25586 25.7398C1.25586 31.0749 5.58085 35.3999 10.916 35.3999H19.9777Z" fill="#EFF2F7"/>
</svg>
