<svg width="170" height="37" viewBox="0 0 170 37" fill="none" xmlns="http://www.w3.org/2000/svg">
<path d="M167.952 17.9199L163.935 18.1671C163.866 17.8238 163.719 17.5147 163.492 17.24C163.265 16.9585 162.967 16.7353 162.596 16.5705C162.232 16.3988 161.796 16.313 161.288 16.313C160.608 16.313 160.034 16.4572 159.567 16.7456C159.1 17.0272 158.867 17.4049 158.867 17.8787C158.867 18.2564 159.018 18.5757 159.32 18.8367C159.622 19.0976 160.141 19.3071 160.876 19.465L163.739 20.0418C165.277 20.3577 166.424 20.8659 167.18 21.5664C167.935 22.2668 168.313 23.187 168.313 24.327C168.313 25.3639 168.007 26.2738 167.396 27.0567C166.792 27.8395 165.961 28.4507 164.903 28.8902C163.853 29.3228 162.64 29.5391 161.267 29.5391C159.173 29.5391 157.504 29.1031 156.261 28.2309C155.025 27.3519 154.3 26.1571 154.087 24.6463L158.403 24.4197C158.534 25.0583 158.85 25.5459 159.351 25.8824C159.852 26.212 160.494 26.3768 161.277 26.3768C162.046 26.3768 162.665 26.2292 163.131 25.9339C163.605 25.6317 163.846 25.2437 163.853 24.7699C163.846 24.3716 163.677 24.0454 163.348 23.7913C163.018 23.5304 162.51 23.3312 161.823 23.1939L159.083 22.6479C157.538 22.3389 156.388 21.8033 155.633 21.041C154.884 20.2788 154.51 19.3071 154.51 18.1259C154.51 17.1096 154.784 16.234 155.334 15.4992C155.89 14.7644 156.669 14.1979 157.672 13.7996C158.682 13.4013 159.863 13.2021 161.216 13.2021C163.214 13.2021 164.786 13.6245 165.933 14.4691C167.087 15.3138 167.76 16.4641 167.952 17.9199Z" fill="#EFF2F7"/>
<path d="M151.664 17.9199L147.647 18.1671C147.578 17.8238 147.431 17.5147 147.204 17.24C146.977 16.9585 146.679 16.7353 146.308 16.5705C145.944 16.3988 145.508 16.313 145 16.313C144.32 16.313 143.746 16.4572 143.279 16.7456C142.812 17.0272 142.579 17.4049 142.579 17.8787C142.579 18.2564 142.73 18.5757 143.032 18.8367C143.334 19.0976 143.853 19.3071 144.588 19.465L147.451 20.0418C148.989 20.3577 150.136 20.8659 150.892 21.5664C151.647 22.2668 152.025 23.187 152.025 24.327C152.025 25.3639 151.719 26.2738 151.108 27.0567C150.504 27.8395 149.673 28.4507 148.615 28.8902C147.564 29.3228 146.352 29.5391 144.979 29.5391C142.884 29.5391 141.216 29.1031 139.973 28.2309C138.737 27.3519 138.012 26.1571 137.799 24.6463L142.115 24.4197C142.246 25.0583 142.562 25.5459 143.063 25.8824C143.564 26.212 144.206 26.3768 144.989 26.3768C145.758 26.3768 146.376 26.2292 146.843 25.9339C147.317 25.6317 147.558 25.2437 147.564 24.7699C147.558 24.3716 147.389 24.0454 147.06 23.7913C146.73 23.5304 146.222 23.3312 145.535 23.1939L142.795 22.6479C141.25 22.3389 140.1 21.8033 139.344 21.041C138.596 20.2788 138.222 19.3071 138.222 18.1259C138.222 17.1096 138.496 16.234 139.046 15.4992C139.602 14.7644 140.381 14.1979 141.384 13.7996C142.393 13.4013 143.575 13.2021 144.927 13.2021C146.926 13.2021 148.498 13.6245 149.645 14.4691C150.799 15.3138 151.472 16.4641 151.664 17.9199Z" fill="#EFF2F7"/>
<path d="M128.374 29.5391C126.747 29.5391 125.346 29.2095 124.171 28.5503C123.004 27.8841 122.104 26.9433 121.473 25.7279C120.841 24.5055 120.525 23.06 120.525 21.3912C120.525 19.7637 120.841 18.3354 121.473 17.1061C122.104 15.8769 122.994 14.9189 124.14 14.2322C125.294 13.5455 126.647 13.2021 128.199 13.2021C129.243 13.2021 130.214 13.3704 131.114 13.7069C132.021 14.0365 132.81 14.5344 133.483 15.2005C134.163 15.8666 134.692 16.7044 135.07 17.7139C135.447 18.7165 135.636 19.8908 135.636 21.2367V22.4419H122.276V19.7225H131.506C131.506 19.0907 131.368 18.5311 131.093 18.0435C130.819 17.5559 130.438 17.1748 129.95 16.9001C129.469 16.6186 128.91 16.4778 128.271 16.4778C127.605 16.4778 127.014 16.6323 126.499 16.9413C125.991 17.2435 125.593 17.6521 125.304 18.1671C125.016 18.6753 124.868 19.2418 124.862 19.8667V22.4522C124.862 23.2351 125.006 23.9115 125.294 24.4815C125.589 25.0514 126.005 25.4909 126.541 25.8C127.076 26.109 127.711 26.2635 128.446 26.2635C128.934 26.2635 129.38 26.1948 129.785 26.0575C130.19 25.9201 130.537 25.7141 130.826 25.4394C131.114 25.1648 131.334 24.8283 131.485 24.43L135.543 24.6978C135.337 25.6729 134.915 26.5245 134.276 27.2524C133.645 27.9734 132.827 28.5365 131.825 28.9417C130.829 29.34 129.679 29.5391 128.374 29.5391Z" fill="#EFF2F7"/>
<path d="M107.508 20.0831V29.2301H103.12V13.4082H107.302V16.1997H107.487C107.837 15.2795 108.425 14.5515 109.249 14.0159C110.073 13.4734 111.072 13.2021 112.246 13.2021C113.345 13.2021 114.303 13.4425 115.12 13.9232C115.937 14.4039 116.572 15.0906 117.026 15.9834C117.479 16.8692 117.705 17.9268 117.705 19.156V29.2301H113.317V19.9388C113.324 18.9706 113.077 18.2152 112.576 17.6727C112.074 17.1233 111.384 16.8486 110.505 16.8486C109.915 16.8486 109.393 16.9757 108.94 17.2297C108.493 17.4838 108.143 17.8547 107.889 18.3422C107.642 18.8229 107.515 19.4032 107.508 20.0831Z" fill="#EFF2F7"/>
<path d="M95.2161 29.2301V13.4081H99.6042V29.2301H95.2161ZM97.4204 11.3686C96.7681 11.3686 96.2084 11.1523 95.7414 10.7196C95.2813 10.2801 95.0513 9.7548 95.0513 9.14362C95.0513 8.53931 95.2813 8.02084 95.7414 7.5882C96.2084 7.1487 96.7681 6.92896 97.4204 6.92896C98.0728 6.92896 98.6291 7.1487 99.0892 7.5882C99.5561 8.02084 99.7896 8.53931 99.7896 9.14362C99.7896 9.7548 99.5561 10.2801 99.0892 10.7196C98.6291 11.1523 98.0728 11.3686 97.4204 11.3686Z" fill="#EFF2F7"/>
<path d="M92.0923 17.9199L88.0751 18.1671C88.0064 17.8238 87.8587 17.5147 87.6321 17.24C87.4055 16.9585 87.1068 16.7353 86.736 16.5705C86.372 16.3988 85.9359 16.313 85.4278 16.313C84.7479 16.313 84.1745 16.4572 83.7075 16.7456C83.2406 17.0272 83.0071 17.4049 83.0071 17.8787C83.0071 18.2564 83.1582 18.5757 83.4603 18.8367C83.7625 19.0976 84.2809 19.3071 85.0157 19.465L87.8793 20.0418C89.4176 20.3577 90.5644 20.8659 91.3198 21.5664C92.0752 22.2668 92.4529 23.187 92.4529 24.327C92.4529 25.3639 92.1473 26.2738 91.5361 27.0567C90.9318 27.8395 90.1009 28.4507 89.0433 28.8902C87.9926 29.3228 86.7806 29.5391 85.4072 29.5391C83.3127 29.5391 81.644 29.1031 80.401 28.2309C79.1649 27.3519 78.4404 26.1571 78.2275 24.6463L82.5436 24.4197C82.674 25.0583 82.9899 25.5459 83.4912 25.8824C83.9925 26.212 84.6346 26.3768 85.4175 26.3768C86.1866 26.3768 86.8046 26.2292 87.2716 25.9339C87.7454 25.6317 87.9858 25.2437 87.9927 24.7699C87.9858 24.3716 87.8175 24.0454 87.4879 23.7913C87.1583 23.5304 86.6501 23.3312 85.9634 23.1939L83.2234 22.6479C81.6783 22.3389 80.528 21.8033 79.7727 21.041C79.0241 20.2788 78.6499 19.3071 78.6499 18.1259C78.6499 17.1096 78.9246 16.234 79.4739 15.4992C80.0302 14.7644 80.8096 14.1979 81.8122 13.7996C82.8217 13.4013 84.0028 13.2021 85.3557 13.2021C87.354 13.2021 88.9266 13.6245 90.0734 14.4691C91.2271 15.3138 91.9001 16.4641 92.0923 17.9199Z" fill="#EFF2F7"/>
<path d="M71.03 22.4935V13.4082H75.4181V29.2302H71.2051V26.3562H71.0403C70.6832 27.2833 70.0892 28.0284 69.2583 28.5915C68.4342 29.1546 67.4282 29.4362 66.2402 29.4362C65.1826 29.4362 64.2521 29.1958 63.4487 28.7151C62.6452 28.2344 62.0169 27.5511 61.5636 26.6653C61.1173 25.7794 60.8907 24.7184 60.8838 23.4823V13.4082H65.2719V22.6995C65.2788 23.6334 65.5294 24.3716 66.0239 24.9141C66.5183 25.4566 67.181 25.7279 68.0119 25.7279C68.5407 25.7279 69.0351 25.6077 69.4952 25.3674C69.9553 25.1202 70.3261 24.7562 70.6077 24.2755C70.8961 23.7948 71.0369 23.2008 71.03 22.4935Z" fill="#EFF2F7"/>
<path d="M42.5254 29.2302V8.13428H46.9135V16.0659H47.0474C47.2397 15.6401 47.5178 15.2075 47.8818 14.768C48.2526 14.3216 48.7333 13.9508 49.3239 13.6555C49.9213 13.3533 50.663 13.2022 51.5488 13.2022C52.7025 13.2022 53.7669 13.5044 54.7421 14.1087C55.7172 14.7062 56.4966 15.6092 57.0804 16.8178C57.6641 18.0196 57.9559 19.5269 57.9559 21.3398C57.9559 23.1047 57.6709 24.5949 57.101 25.8104C56.5378 27.019 55.7687 27.9358 54.7936 28.5607C53.8253 29.1787 52.7403 29.4877 51.5385 29.4877C50.687 29.4877 49.9625 29.347 49.3651 29.0654C48.7745 28.7839 48.2904 28.4302 47.9127 28.0044C47.535 27.5718 47.2466 27.1357 47.0474 26.6962H46.8517V29.2302H42.5254ZM46.8208 21.3192C46.8208 22.26 46.9513 23.0807 47.2122 23.7811C47.4732 24.4816 47.8509 25.0275 48.3453 25.4189C48.8398 25.8035 49.4406 25.9958 50.1479 25.9958C50.8621 25.9958 51.4664 25.8001 51.9609 25.4086C52.4553 25.0103 52.8296 24.461 53.0837 23.7605C53.3446 23.0532 53.4751 22.2394 53.4751 21.3192C53.4751 20.4059 53.348 19.6024 53.094 18.9089C52.8399 18.2153 52.4656 17.6728 51.9712 17.2813C51.4767 16.8899 50.869 16.6942 50.1479 16.6942C49.4338 16.6942 48.8295 16.883 48.335 17.2607C47.8474 17.6384 47.4732 18.1741 47.2122 18.8677C46.9513 19.5612 46.8208 20.3784 46.8208 21.3192Z" fill="#EFF2F7"/>
<path fill-rule="evenodd" clip-rule="evenodd" d="M17.4679 13.3957L22.2146 18.1424L17.695 22.6621L12.9483 17.9153L17.4679 13.3957ZM12.6011 8.52893L9.62512 5.55291C9.45537 5.38315 9.45536 5.10792 9.62512 4.93816L13.8771 0.686155C14.0469 0.516399 14.3221 0.516399 14.4919 0.686155L29.0281 15.2224C30.6408 16.8351 30.6408 19.4498 29.0281 21.0625L22.5618 27.5288L25.5378 30.5048C25.7075 30.6746 25.7075 30.9498 25.5378 31.1196L21.2858 35.3716C21.116 35.5413 20.8408 35.5413 20.671 35.3716L6.13482 20.8354C4.52212 19.2227 4.52212 16.608 6.13482 14.9953L12.6011 8.52893Z" fill="#EFF2F7"/>
</svg>
