<svg width="168" height="34" viewBox="0 0 168 34" fill="none" xmlns="http://www.w3.org/2000/svg">
<circle cx="7.2815" cy="8.50648" r="7.2815" fill="#FF5F55"/>
<path d="M18.0987 1.22498C22.1579 1.22498 26.0508 2.83748 28.9211 5.70777C31.7914 8.57805 33.4039 12.471 33.4039 16.5302C33.4039 20.5894 31.7914 24.4823 28.9211 27.3526C26.0508 30.2229 22.1579 31.8354 18.0987 31.8354L18.0987 16.5302L18.0987 1.22498Z" fill="#4187FF"/>
<path d="M1.14941 18.8101H14.5631V32.2237H1.14941V18.8101Z" fill="#FFC32A"/>
<path d="M47.9618 24.7019V6.88648H51.2704V24.7019H47.9618ZM60.8587 11.6457C61.6053 11.6457 62.3603 11.8069 63.1238 12.1293C63.9043 12.4347 64.566 12.9946 65.109 13.809C65.6689 14.6235 65.9489 15.7178 65.9489 17.0922V24.7019H62.793V17.0922C62.793 16.142 62.5215 15.4633 61.9786 15.0561C61.4526 14.6319 60.8333 14.4199 60.1207 14.4199C59.4081 14.4199 58.7972 14.6744 58.2882 15.1834C57.7962 15.6754 57.5502 16.4729 57.5502 17.5757V24.7019H54.3943V11.9766H57.5502V13.0455C58.0083 12.6213 58.5173 12.282 59.0772 12.0275C59.6371 11.773 60.231 11.6457 60.8587 11.6457ZM76.5431 11.6457C77.8326 11.6457 78.9609 11.9427 79.928 12.5365C80.8951 13.1134 81.6332 13.9108 82.1422 14.9289C82.6682 15.9469 82.9312 17.0922 82.9312 18.3647C82.9312 19.6372 82.6682 20.7825 82.1422 21.8005C81.6332 22.8186 80.8951 23.616 79.928 24.1929C78.9609 24.7698 77.8326 25.0582 76.5431 25.0582C75.7117 25.0582 74.9142 24.897 74.1507 24.5747C73.3872 24.2523 72.7085 23.8026 72.1147 23.2258V24.7019H68.9588V6.88648H72.1147V13.4782C72.7085 12.9013 73.3872 12.4517 74.1507 12.1293C74.9312 11.8069 75.7286 11.6457 76.5431 11.6457ZM76.1359 22.0296C77.2048 22.0296 78.0786 21.6902 78.7573 21.0116C79.4529 20.3159 79.8007 19.4336 79.8007 18.3647C79.8007 17.2958 79.4529 16.422 78.7573 15.7433C78.0786 15.0476 77.2048 14.6998 76.1359 14.6998C75.0839 14.6998 74.1931 15.0392 73.4635 15.7178C72.7509 16.3965 72.3946 17.2703 72.3946 18.3393C72.3946 19.0519 72.5558 19.6881 72.8782 20.248C73.2175 20.808 73.6671 21.2491 74.2271 21.5715C74.8039 21.8769 75.4402 22.0296 76.1359 22.0296ZM91.1446 25.0582C89.9399 25.0582 88.8201 24.7613 87.7851 24.1674C86.7671 23.5566 85.9526 22.7422 85.3418 21.7242C84.748 20.6892 84.4511 19.5694 84.4511 18.3647C84.4511 17.16 84.748 16.0487 85.3418 15.0307C85.9526 13.9957 86.7671 13.1813 87.7851 12.5874C88.8201 11.9766 89.9399 11.6712 91.1446 11.6712C92.3492 11.6712 93.4606 11.9766 94.4786 12.5874C95.5136 13.1813 96.328 13.9957 96.9218 15.0307C97.5327 16.0487 97.8381 17.16 97.8381 18.3647C97.8381 19.5694 97.5327 20.6892 96.9218 21.7242C96.328 22.7422 95.5136 23.5566 94.4786 24.1674C93.4606 24.7613 92.3492 25.0582 91.1446 25.0582ZM91.1191 21.9023C91.7639 21.9023 92.3577 21.7496 92.9007 21.4442C93.4436 21.1219 93.8763 20.6892 94.1986 20.1462C94.521 19.6033 94.6822 19.0095 94.6822 18.3647C94.6822 17.72 94.521 17.1261 94.1986 16.5832C93.8763 16.0402 93.4436 15.6076 92.9007 15.2852C92.3577 14.9628 91.7639 14.8016 91.1191 14.8016C90.4744 14.8016 89.8805 14.9628 89.3376 15.2852C88.7946 15.6076 88.362 16.0402 88.0396 16.5832C87.7342 17.1261 87.5815 17.72 87.5815 18.3647C87.5815 19.0095 87.7342 19.6033 88.0396 20.1462C88.362 20.6892 88.7946 21.1219 89.3376 21.4442C89.8805 21.7496 90.4744 21.9023 91.1191 21.9023ZM107.869 11.9766H111.025V24.7019H107.869V23.633C107.411 24.0572 106.902 24.3965 106.342 24.651C105.782 24.9055 105.189 25.0328 104.561 25.0328C103.814 25.0328 103.051 24.8801 102.27 24.5747C101.507 24.2523 100.845 23.6839 100.285 22.8695C99.7422 22.055 99.4707 20.9607 99.4707 19.5863V11.9766H102.627V19.5863C102.627 20.5365 102.89 21.2237 103.416 21.6478C103.958 22.055 104.586 22.2586 105.299 22.2586C106.011 22.2586 106.614 22.0126 107.106 21.5206C107.615 21.0116 107.869 20.2056 107.869 19.1028V11.9766ZM120.757 11.6457C121.504 11.6457 122.259 11.8069 123.022 12.1293C123.803 12.4347 124.464 12.9946 125.007 13.809C125.567 14.6235 125.847 15.7178 125.847 17.0922V24.7019H122.691V17.0922C122.691 16.142 122.42 15.4633 121.877 15.0561C121.351 14.6319 120.732 14.4199 120.019 14.4199C119.306 14.4199 118.696 14.6744 118.187 15.1834C117.695 15.6754 117.449 16.4729 117.449 17.5757V24.7019H114.293V11.9766H117.449V13.0455C117.907 12.6213 118.416 12.282 118.976 12.0275C119.536 11.773 120.129 11.6457 120.757 11.6457ZM138.311 6.88648H141.467V24.7019H138.311V23.4803C137.734 23.9893 137.09 24.3795 136.377 24.651C135.664 24.9225 134.926 25.0582 134.163 25.0582C132.873 25.0582 131.745 24.7698 130.778 24.1929C129.811 23.616 129.064 22.8186 128.538 21.8005C128.029 20.7825 127.775 19.6372 127.775 18.3647C127.775 17.0922 128.029 15.9469 128.538 14.9289C129.064 13.9108 129.811 13.1134 130.778 12.5365C131.745 11.9427 132.873 11.6457 134.163 11.6457C134.926 11.6457 135.656 11.79 136.352 12.0784C137.064 12.3499 137.717 12.7316 138.311 13.2237V6.88648ZM134.57 22.0296C135.266 22.0296 135.893 21.8769 136.453 21.5715C137.03 21.2491 137.48 20.808 137.802 20.248C138.142 19.6881 138.311 19.0519 138.311 18.3393C138.311 17.2703 137.947 16.3965 137.217 15.7178C136.504 15.0392 135.622 14.6998 134.57 14.6998C133.501 14.6998 132.619 15.0476 131.923 15.7433C131.245 16.422 130.905 17.2958 130.905 18.3647C130.905 19.4336 131.245 20.3159 131.923 21.0116C132.619 21.6902 133.501 22.0296 134.57 22.0296ZM160.515 15.7687L166.292 24.7019H162.322L158.199 18.3138L154.076 24.7019H150.105L155.883 15.7687L150.131 6.88648H154.101L158.199 13.2237L162.296 6.88648H166.267L160.515 15.7687Z" fill="white"/>
</svg>
